<svg width="498" height="480" viewBox="0 0 498 480" fill="none" xmlns="http://www.w3.org/2000/svg">
<circle cx="258" cy="240" r="240" fill="#FCFCFC"/>
<circle cx="258" cy="240" r="180" fill="#E6F9FF"/>
<path d="M203 108.388C203 102.651 207.665 98 213.419 98H368.582C374.335 98 379 102.651 379 108.388V213.612C379 219.349 374.335 224 368.582 224H213.419C207.665 224 203 219.349 203 213.612V108.388Z" fill="white"/>
<path d="M358.981 192.961H223.019C222.456 192.961 222 193.417 222 193.981C222 194.544 222.456 195 223.019 195H358.981C359.544 195 360 194.544 360 193.981C360 193.417 359.544 192.961 358.981 192.961Z" fill="#252362"/>
<path d="M358.981 173.446H223.019C222.456 173.446 222 173.903 222 174.466C222 175.029 222.456 175.485 223.019 175.485H358.981C359.544 175.485 360 175.029 360 174.466C360 173.903 359.544 173.446 358.981 173.446Z" fill="#252362"/>
<path d="M358.981 153.931H223.019C222.456 153.931 222 154.388 222 154.951C222 155.514 222.456 155.97 223.019 155.97H358.981C359.544 155.97 360 155.514 360 154.951C360 154.388 359.544 153.931 358.981 153.931Z" fill="#252362"/>
<path d="M284.074 190.366V196.761C284.074 198.614 282.592 200.19 280.645 200.19H274.25C272.397 200.19 270.821 198.707 270.821 196.761V190.366C270.821 188.512 272.304 186.937 274.25 186.937H280.645C282.499 186.937 284.074 188.512 284.074 190.366Z" fill="#252362"/>
<path d="M342.821 171.222V177.616C342.821 179.563 341.246 181.231 339.207 181.231H332.812C330.865 181.231 329.197 179.655 329.197 177.616V171.222C329.197 169.275 330.773 167.607 332.812 167.607H339.207C341.246 167.607 342.821 169.275 342.821 171.222Z" fill="#252362"/>
<path d="M314.474 154.023V155.877C314.474 158.657 312.157 160.974 309.377 160.974H307.523C304.743 160.974 302.426 158.657 302.426 155.877V154.023C302.426 151.243 304.743 148.926 307.523 148.926H309.377C312.157 148.833 314.474 151.15 314.474 154.023Z" fill="white"/>
<path d="M315.307 151.707V158.102C315.307 160.141 313.639 161.809 311.6 161.809H305.205C303.166 161.809 301.498 160.141 301.498 158.102V151.707C301.498 149.668 303.166 148 305.205 148H311.6C313.639 148.092 315.307 149.668 315.307 151.707Z" fill="#252362"/>
<path d="M222 119C222 117.895 222.866 117 223.935 117H306.065C307.134 117 308 117.895 308 119C308 120.104 307.134 121 306.065 121H223.935C222.866 121 222 120.104 222 119Z" fill="#252362"/>
<path d="M222 129C222 127.895 222.866 127 223.935 127H276.065C277.134 127 278 127.895 278 129C278 130.104 277.134 131 276.065 131H223.935C222.866 131 222 130.104 222 129Z" fill="#252362"/>
<g filter="url(#filter0_d_23831_18163)">
<path d="M221.103 166H123.883C111.245 166 101 176.245 101 188.883C101 201.521 111.245 211.767 123.883 211.767H221.103C233.741 211.767 243.987 201.521 243.987 188.883C243.987 176.245 233.741 166 221.103 166Z" fill="white"/>
</g>
<g filter="url(#filter1_d_23831_18163)">
<path d="M393.266 250H318.883C306.245 250 296 260.245 296 272.883V273.392C296 286.03 306.245 296.275 318.883 296.275H393.266C405.904 296.275 416.149 286.03 416.149 273.392V272.883C416.149 260.245 405.904 250 393.266 250Z" fill="white"/>
<g clip-path="url(#clip0_23831_18163)">
<path d="M340.034 270.125V276.964H338.173V274.223H335.885V276.99H334.024V270.125H335.885V272.686H338.173V270.125H340.034ZM374.154 274.966C374.732 274.966 375.21 275.453 375.21 276.042C375.21 276.631 374.732 277.118 374.154 277.118C373.575 277.118 373.098 276.631 373.098 276.042C373.073 275.453 373.55 274.966 374.154 274.966ZM358.766 268.741C359.344 268.741 359.822 269.228 359.822 269.817C359.822 270.406 359.344 270.893 358.766 270.893C358.187 270.893 357.71 270.406 357.71 269.817C357.685 269.228 358.162 268.741 358.766 268.741ZM346.194 274.172C346.194 274.274 346.194 274.377 346.169 274.479H342.624C342.699 275.863 344.082 275.735 344.308 275.043H346.093C346.018 275.427 345.867 275.76 345.641 276.068C345.389 276.375 345.088 276.606 344.736 276.785C344.358 276.964 343.956 277.041 343.529 277.041C343.001 277.041 342.523 276.939 342.121 276.708C341.718 276.477 341.392 276.17 341.165 275.735C340.939 275.325 340.813 274.812 340.813 274.249C340.813 273.685 340.939 273.199 341.165 272.763C341.392 272.353 341.718 272.02 342.121 271.79C342.523 271.559 343.001 271.457 343.529 271.457C344.057 271.457 344.534 271.559 344.937 271.79C345.339 272.02 345.666 272.328 345.892 272.737C346.068 273.173 346.194 273.634 346.194 274.172ZM344.283 273.813C344.258 272.686 342.674 272.635 342.598 273.813H344.283ZM348.457 271.559L349.588 274.582L350.644 271.559H352.706L349.689 278.732H347.677L348.583 276.759L346.37 271.559H348.457ZM355.019 275.53H357.106V276.964H353.134V270.125H354.994V275.53H355.019ZM359.696 271.559V276.99H357.835V271.559H359.696ZM364.272 271.508C364.876 271.508 365.379 271.713 365.705 272.123C366.057 272.532 366.233 273.096 366.233 273.813V276.964H364.373V274.069C364.373 273.762 364.297 273.506 364.121 273.327C363.971 273.147 363.744 273.07 363.468 273.07C363.191 273.07 362.965 273.173 362.814 273.352C362.638 273.532 362.562 273.788 362.562 274.121V276.99H360.702V271.559H362.562V272.456C362.713 272.174 362.94 271.943 363.216 271.764C363.543 271.585 363.895 271.508 364.272 271.508ZM370.558 276.99L369.1 274.736V276.99H367.239V269.817H369.1V273.66L370.558 271.559H372.721L370.659 274.274L372.796 276.99H370.558ZM382.753 271.508C383.432 271.508 383.935 271.713 384.312 272.123C384.689 272.532 384.865 273.096 384.865 273.813V276.964H383.004V274.069C383.004 273.788 382.929 273.557 382.778 273.403C382.627 273.25 382.401 273.173 382.149 273.173C381.873 273.173 381.647 273.25 381.496 273.429C381.345 273.583 381.244 273.839 381.244 274.121V276.99H379.384V274.069C379.384 273.788 379.308 273.557 379.157 273.403C379.006 273.25 378.78 273.173 378.529 273.173C378.252 273.173 378.026 273.25 377.875 273.429C377.724 273.583 377.624 273.839 377.624 274.121V276.99H375.763V271.559H377.624V272.379C377.774 272.097 377.976 271.892 378.252 271.738C378.529 271.585 378.856 271.508 379.208 271.508C379.61 271.508 379.962 271.61 380.264 271.79C380.565 271.969 380.817 272.225 380.968 272.558C381.144 272.251 381.395 271.995 381.697 271.79C382.049 271.61 382.376 271.508 382.753 271.508ZM391 274.172C391 274.274 391 274.377 390.975 274.479H387.43C387.505 275.863 388.888 275.735 389.114 275.043H390.899C390.824 275.427 390.673 275.76 390.447 276.068C390.195 276.375 389.894 276.606 389.542 276.785C389.165 276.964 388.762 277.041 388.335 277.041C387.807 277.041 387.329 276.939 386.927 276.708C386.524 276.477 386.198 276.17 385.971 275.735C385.745 275.325 385.619 274.812 385.619 274.249C385.619 273.685 385.745 273.199 385.971 272.763C386.198 272.353 386.524 272.02 386.927 271.79C387.329 271.559 387.807 271.457 388.335 271.457C388.863 271.457 389.341 271.559 389.743 271.79C390.145 272.02 390.472 272.328 390.698 272.737C390.899 273.173 391 273.634 391 274.172ZM389.114 273.813C389.114 272.712 387.505 272.661 387.43 273.813H389.114Z" fill="#0198FC"/>
<path d="M329.625 270.331L331.41 272.15C332.039 272.79 332.039 273.841 331.41 274.507C331.31 274.609 331.234 274.712 331.134 274.788C330.807 275.096 330.304 275.096 330.002 274.763C329.776 274.532 329.7 274.199 329.801 273.892C329.851 273.764 329.851 273.789 329.927 273.584C330.027 273.354 329.977 273.046 329.776 272.867L328.443 271.509L327.111 270.152C326.909 269.947 326.633 269.921 326.407 269.998C326.205 270.075 326.231 270.075 326.105 270.126C325.828 270.229 325.476 270.177 325.25 269.921C324.948 269.614 324.923 269.101 325.225 268.768C325.325 268.666 325.401 268.589 325.501 268.487C326.13 267.846 327.161 267.846 327.815 268.487L329.625 270.331Z" fill="#0198FC"/>
<path d="M324.42 275.659L323.087 274.302C322.911 274.122 322.861 273.841 322.937 273.61C322.962 273.533 323.037 273.354 323.062 273.303C323.188 272.995 323.113 272.662 322.886 272.406C322.585 272.099 322.082 272.073 321.755 272.38C321.654 272.483 321.579 272.56 321.478 272.662C320.85 273.303 320.85 274.353 321.478 275.019L323.263 276.838L325.049 278.657C325.677 279.297 326.708 279.297 327.362 278.657C327.462 278.554 327.563 278.477 327.638 278.375C327.94 278.042 327.94 277.529 327.613 277.222C327.387 276.991 327.035 276.915 326.733 277.043C326.658 277.068 326.507 277.145 326.432 277.171C326.205 277.248 325.929 277.196 325.753 277.017L324.42 275.659Z" fill="#0198FC"/>
<path d="M329.348 277.965C329.725 278.349 330.354 278.349 330.731 277.965C331.108 277.581 331.108 276.94 330.731 276.556C329.65 275.454 329.7 275.506 328.619 274.404C328.242 274.02 327.613 274.02 327.236 274.404C326.859 274.788 326.859 275.429 327.236 275.813C328.317 276.915 328.267 276.838 329.348 277.965Z" fill="#0198FC"/>
<path d="M324.269 272.765C324.646 273.149 325.275 273.149 325.652 272.765C326.029 272.38 326.029 271.74 325.652 271.356C324.571 270.254 324.621 270.305 323.54 269.204C323.163 268.82 322.534 268.82 322.157 269.204C321.78 269.588 321.78 270.229 322.157 270.613C323.238 271.714 323.163 271.663 324.269 272.765Z" fill="#0198FC"/>
</g>
</g>
<g filter="url(#filter2_d_23831_18163)">
<path d="M70 320.667C70 327.776 75.763 333.539 82.8719 333.539H263.078C270.187 333.539 275.95 327.776 275.95 320.667V249.872C275.95 242.763 270.187 237 263.078 237H82.8719C75.763 237 70 242.763 70 249.872V320.667Z" fill="#009BFF"/>
<path d="M157.62 273L166.724 297H163.276L160.931 290.503H150.792L148.448 297H145L154.104 273H157.62ZM184.33 273V296.464H181.39V294.258H181.254C180.705 295.061 179.954 295.728 178.929 296.265C177.901 296.799 176.808 297 175.644 297C173.457 297 171.61 296.196 170.106 294.527C168.6 292.855 167.849 290.85 167.849 288.443C167.849 286.102 168.6 284.097 170.106 282.359C171.679 280.687 173.457 279.886 175.644 279.886C176.876 279.886 177.969 280.153 178.929 280.621C179.954 281.155 180.705 281.758 181.254 282.626H181.39L181.254 280.42V273H184.33ZM194.425 279.749C195.846 279.749 197.133 280.086 198.353 280.761C199.504 281.434 200.318 282.377 200.791 283.524L198.083 284.668C197.744 283.996 197.269 283.456 196.592 283.052C195.914 282.646 195.102 282.446 194.22 282.446C193.408 282.446 192.731 282.646 192.053 283.052C191.444 283.456 191.105 283.927 191.105 284.534C191.105 285.477 191.985 286.15 193.747 286.487L196.185 287.094C199.436 287.903 200.995 289.519 200.995 291.946C201.063 293.36 200.386 294.573 199.165 295.516C197.947 296.46 196.389 297 194.491 297C192.865 297 191.444 296.595 190.157 295.719C188.937 294.844 188.056 293.765 187.515 292.35L190.223 291.204C190.63 292.147 191.171 292.956 191.985 293.495C192.731 294.035 193.611 294.304 194.491 294.304C195.441 294.304 196.253 294.103 196.93 293.697C197.608 293.294 197.878 292.754 197.878 292.215C197.878 291.204 197.066 290.396 195.507 289.925L192.731 289.25C189.546 288.443 187.988 286.959 187.988 284.668C187.988 283.186 188.598 282.04 189.818 281.096C191.037 280.221 192.595 279.749 194.425 279.749ZM176.125 282.693C174.619 282.693 173.389 283.229 172.432 284.298C171.404 285.367 170.926 286.771 170.926 288.443C170.926 290.114 171.404 291.517 172.432 292.588C173.457 293.657 174.687 294.191 176.125 294.191C177.629 294.258 178.859 293.723 179.816 292.654C180.843 291.585 181.322 290.181 181.322 288.443C181.322 286.771 180.843 285.367 179.816 284.298C178.859 283.229 177.629 282.693 176.125 282.693ZM155.965 276.828H155.827L151.827 287.632H159.898L155.965 276.828Z" fill="white"/>
</g>
<g filter="url(#filter3_d_23831_18163)">
<path d="M345.877 339.438C345.877 322.075 331.801 308 314.438 308C297.075 308 283 322.075 283 339.438C283 356.801 297.075 370.877 314.438 370.877C331.801 370.877 345.877 356.801 345.877 339.438Z" fill="white"/>
<path fill-rule="evenodd" clip-rule="evenodd" d="M312.556 352.53V356.041C312.995 356.164 313.336 356.227 314.535 356.227C315.733 356.227 316.203 356.164 316.642 356.041V352.53C318.949 352.16 321.17 351.291 322.603 349.92C324.034 348.552 324.752 346.847 324.752 344.815C324.752 341.12 322.72 338.455 318.656 336.823L314.621 335.206C313.92 334.928 313.408 334.667 313.086 334.419C312.765 334.174 312.602 333.835 312.602 333.403C312.602 332.232 313.392 331.647 314.97 331.647C316.549 331.647 318.799 332.263 321.723 333.494C322.424 332.879 322.995 332.055 323.434 331.023C323.873 329.991 324.091 328.952 324.091 327.904C321.226 326.634 318.699 326.163 316.625 325.917V322.265C316.07 322.11 315.79 322.033 314.708 322.033C313.628 322.033 313.123 322.11 312.571 322.265V325.962C310.553 326.362 308.796 326.988 307.364 328.688C306.149 330.13 305.502 331.83 305.502 333.864C305.502 337.252 307.46 339.732 311.377 341.303L315.543 342.875C316.858 343.398 317.515 344.138 317.515 345.092C317.515 345.708 317.267 346.178 316.77 346.502C316.274 346.824 315.602 346.985 314.754 346.985C312.59 346.985 309.989 346.138 306.949 344.444C306.305 344.907 305.735 345.683 305.239 346.778C304.741 347.872 304.478 348.866 304.449 349.759C307.701 351.829 309.28 352.057 312.29 352.491L312.556 352.53ZM330.834 346.947V348.995C331.085 349.067 331.28 349.103 331.965 349.103C332.65 349.103 332.919 349.067 333.169 348.995V346.947C334.487 346.731 335.757 346.224 336.575 345.424C337.393 344.626 337.803 343.631 337.803 342.446C337.803 340.291 336.642 338.736 334.32 337.784L332.014 336.841C331.614 336.679 331.321 336.527 331.137 336.382C330.954 336.239 330.861 336.041 330.861 335.789C330.861 335.106 331.312 334.765 332.214 334.765C333.116 334.765 334.402 335.125 336.073 335.842C336.473 335.483 336.799 335.003 337.05 334.401C337.301 333.799 337.426 333.193 337.426 332.581C335.789 331.841 334.345 331.566 333.159 331.422V329.292C332.842 329.202 332.683 329.157 332.064 329.157C331.447 329.157 331.158 329.202 330.843 329.292V331.448C329.69 331.682 328.686 332.047 327.868 333.039C327.173 333.88 326.803 334.872 326.803 336.058C326.803 338.035 327.922 339.481 330.161 340.398L332.541 341.314C333.293 341.62 333.668 342.052 333.668 342.608C333.668 342.967 333.527 343.241 333.242 343.43C332.959 343.618 332.575 343.712 332.091 343.712C330.854 343.712 329.367 343.218 327.63 342.23C327.263 342.5 326.937 342.953 326.653 343.591C326.369 344.23 326.218 344.809 326.202 345.33C328.06 346.538 328.962 346.671 330.682 346.924L330.834 346.947ZM296.03 348.995V346.947C295.978 346.939 295.928 346.932 295.878 346.924C294.158 346.671 293.256 346.538 291.397 345.33C291.414 344.809 291.565 344.23 291.849 343.591C292.132 342.953 292.458 342.5 292.826 342.23C294.563 343.218 296.05 343.712 297.286 343.712C297.77 343.712 298.154 343.618 298.438 343.43C298.722 343.241 298.864 342.967 298.864 342.608C298.864 342.052 298.488 341.62 297.737 341.314L295.356 340.398C293.118 339.481 291.999 338.035 291.999 336.058C291.999 334.872 292.369 333.88 293.063 333.039C293.882 332.047 294.886 331.682 296.039 331.448V329.292C296.354 329.202 296.642 329.157 297.259 329.157C297.878 329.157 298.038 329.202 298.355 329.292V331.422C299.54 331.566 300.985 331.841 302.621 332.581C302.621 333.193 302.497 333.799 302.246 334.401C301.995 335.003 301.669 335.483 301.268 335.842C299.597 335.125 298.312 334.765 297.409 334.765C296.508 334.765 296.056 335.106 296.056 335.789C296.056 336.041 296.149 336.239 296.333 336.382C296.517 336.527 296.809 336.679 297.21 336.841L299.515 337.784C301.838 338.736 302.999 340.291 302.999 342.446C302.999 343.631 302.589 344.626 301.771 345.424C300.952 346.224 299.683 346.731 298.365 346.947V348.995C298.114 349.067 297.845 349.103 297.161 349.103C296.476 349.103 296.281 349.067 296.03 348.995Z" fill="#0198FC"/>
</g>
<path fill-rule="evenodd" clip-rule="evenodd" d="M226.501 188.502C226.469 188.074 226.273 187.666 225.911 187.278C225.549 186.892 225.011 186.697 224.297 186.697C223.777 186.697 223.327 186.86 222.944 187.187C222.561 187.513 222.298 187.952 222.156 188.502H226.501V188.502ZM224.481 193.397C223.349 193.397 222.429 193.021 221.721 192.266C221.011 191.511 220.657 190.558 220.657 189.405C220.657 188.314 221.001 187.376 221.689 186.59C222.378 185.805 223.258 185.412 224.328 185.412C225.439 185.412 226.33 185.774 226.998 186.498C227.665 187.223 228 188.191 228 189.405L227.984 189.664H222.064C222.105 190.42 222.358 191.017 222.821 191.455C223.285 191.894 223.828 192.113 224.451 192.113C225.46 192.113 226.143 191.684 226.501 190.828L227.755 191.348C227.51 191.929 227.107 192.417 226.546 192.809C225.986 193.201 225.297 193.397 224.481 193.397ZM216.98 193.398C216.144 193.398 215.454 193.194 214.908 192.786C214.376 192.395 213.96 191.866 213.707 191.256L214.962 190.736C215.359 191.674 216.038 192.143 216.996 192.143C217.435 192.143 217.794 192.047 218.075 191.853C218.354 191.659 218.495 191.404 218.495 191.087C218.495 190.598 218.154 190.267 217.47 190.093L215.956 189.726C215.476 189.604 215.023 189.372 214.594 189.031C214.167 188.689 213.952 188.227 213.952 187.646C213.952 186.983 214.245 186.445 214.832 186.032C215.417 185.619 216.114 185.412 216.92 185.412C217.582 185.412 218.174 185.563 218.694 185.863C219.204 186.153 219.599 186.609 219.811 187.156L218.587 187.661C218.312 186.998 217.741 186.667 216.874 186.667C216.455 186.667 216.104 186.754 215.818 186.927C215.532 187.1 215.39 187.335 215.39 187.631C215.39 188.059 215.721 188.35 216.385 188.502L217.868 188.854C218.572 189.017 219.092 189.298 219.428 189.696C219.766 190.093 219.933 190.542 219.933 191.042C219.933 191.715 219.658 192.276 219.107 192.725C218.556 193.173 217.847 193.398 216.981 193.398M207.389 185.657V186.697H207.45C207.654 186.34 207.976 186.037 208.414 185.787C208.842 185.54 209.328 185.411 209.822 185.412C210.75 185.412 211.458 185.698 211.948 186.269C212.437 186.84 212.682 187.606 212.682 188.564V193.153H211.275V188.777C211.275 187.39 210.658 186.697 209.424 186.697C208.843 186.697 208.369 186.929 208.001 187.393C207.634 187.857 207.45 188.395 207.45 189.007V193.153H206.044V185.657H207.389ZM203.366 188.502C203.335 188.074 203.138 187.666 202.777 187.278C202.415 186.892 201.877 186.697 201.163 186.697C200.643 186.697 200.192 186.86 199.809 187.187C199.426 187.513 199.164 187.952 199.021 188.502H203.366V188.502ZM201.347 193.397C200.215 193.397 199.294 193.021 198.586 192.266C197.877 191.511 197.522 190.558 197.522 189.405C197.522 188.314 197.866 187.376 198.555 186.59C199.243 185.805 200.123 185.412 201.194 185.412C202.305 185.412 203.195 185.774 203.863 186.498C204.531 187.223 204.865 188.191 204.865 189.405L204.85 189.664H198.93C198.971 190.42 199.223 191.017 199.687 191.455C200.151 191.894 200.693 192.113 201.316 192.113C202.326 192.113 203.009 191.684 203.366 190.828L204.62 191.348C204.376 191.929 203.972 192.417 203.412 192.809C202.851 193.201 202.162 193.397 201.347 193.397ZM192.875 193.398C192.08 193.398 191.302 193.137 190.542 192.618C189.783 192.097 189.285 191.368 189.051 190.43L190.336 189.91C190.483 190.503 190.812 191.035 191.277 191.432C191.75 191.845 192.283 192.052 192.874 192.052C193.487 192.052 194.009 191.891 194.443 191.569C194.876 191.249 195.093 190.812 195.093 190.262C195.093 189.65 194.876 189.178 194.443 188.846C194.009 188.515 193.323 188.207 192.385 187.921C191.416 187.615 190.681 187.22 190.182 186.735C189.683 186.251 189.433 185.632 189.433 184.876C189.433 184.091 189.744 183.408 190.367 182.826C190.988 182.245 191.799 181.955 192.799 181.955C193.726 181.955 194.481 182.187 195.063 182.651C195.644 183.115 196.02 183.623 196.195 184.173L194.91 184.709C194.818 184.362 194.59 184.041 194.229 183.745C193.867 183.449 193.4 183.301 192.83 183.301C192.288 183.301 191.827 183.452 191.445 183.752C191.063 184.054 190.871 184.429 190.871 184.876C190.871 185.285 191.047 185.629 191.399 185.909C191.751 186.19 192.268 186.443 192.951 186.667C193.492 186.84 193.943 187.009 194.306 187.172C194.694 187.35 195.063 187.568 195.407 187.821C195.779 188.091 196.059 188.428 196.248 188.832C196.437 189.234 196.531 189.7 196.531 190.231C196.531 190.761 196.422 191.235 196.203 191.654C196 192.053 195.7 192.395 195.331 192.648C194.605 193.138 193.75 193.399 192.875 193.398ZM184.154 192.112C184.816 192.112 185.38 191.868 185.844 191.378C186.308 190.888 186.54 190.231 186.54 189.405C186.54 188.579 186.308 187.921 185.844 187.432C185.38 186.942 184.816 186.697 184.155 186.697C183.501 186.697 182.94 186.944 182.472 187.439C182.002 187.934 181.767 188.59 181.767 189.405C181.767 190.22 182.002 190.876 182.472 191.37C182.94 191.865 183.501 192.112 184.154 192.112ZM183.924 193.398C182.955 193.398 182.119 193.015 181.416 192.25C180.711 191.486 180.36 190.537 180.36 189.405C180.36 188.273 180.711 187.325 181.416 186.559C182.119 185.794 182.955 185.412 183.924 185.412C184.496 185.412 185.008 185.534 185.462 185.78C185.915 186.024 186.254 186.33 186.479 186.697H186.54L186.479 185.657V182.2H187.886V193.152H186.54V192.112H186.479C186.254 192.48 185.915 192.786 185.462 193.031C185.007 193.275 184.495 193.398 183.924 193.398ZM173.247 188.869H176.888L175.098 183.928H175.037L173.247 188.87V188.869ZM170.141 193.152L174.271 182.2H175.863L179.994 193.152H178.433L177.377 190.186H172.772L171.702 193.152H170.141Z" fill="#5F6368"/>
<path fill-rule="evenodd" clip-rule="evenodd" d="M160.087 189.285L163.654 187.803C163.457 187.304 162.869 186.957 162.173 186.957C161.281 186.957 160.042 187.743 160.087 189.285ZM164.274 190.721L165.634 191.627C165.197 192.278 164.138 193.396 162.309 193.396C160.042 193.396 158.405 191.643 158.405 189.406C158.405 187.031 160.057 185.414 162.113 185.414C164.184 185.414 165.197 187.063 165.529 187.954L165.71 188.408L160.374 190.615C160.782 191.416 161.417 191.824 162.309 191.824C163.2 191.824 163.821 191.386 164.274 190.721ZM155.626 193.154H157.38V181.424H155.626V193.154ZM152.766 189.42C152.766 188.015 151.828 186.987 150.634 186.987C149.425 186.987 148.412 188.015 148.412 189.42C148.412 190.811 149.425 191.824 150.633 191.824C151.828 191.824 152.766 190.811 152.766 189.42ZM154.307 185.656V192.822C154.307 195.77 152.569 196.979 150.513 196.979C148.577 196.979 147.413 195.679 146.976 194.621L148.502 193.986C148.775 194.636 149.44 195.406 150.513 195.406C151.828 195.406 152.645 194.59 152.645 193.064V192.489H152.584C152.191 192.973 151.435 193.396 150.482 193.396C148.487 193.396 146.658 191.658 146.658 189.42C146.658 187.168 148.487 185.414 150.482 185.414C151.435 185.414 152.191 185.837 152.584 186.306H152.644V185.656H154.307ZM135.171 189.406C135.171 187.969 134.147 186.987 132.96 186.987C131.773 186.987 130.748 187.97 130.748 189.406C130.748 190.826 131.773 191.824 132.96 191.824C134.147 191.824 135.171 190.826 135.171 189.406ZM136.893 189.406C136.893 191.703 135.127 193.396 132.96 193.396C130.793 193.396 129.027 191.703 129.027 189.406C129.027 187.092 130.793 185.415 132.96 185.415C135.127 185.415 136.893 187.092 136.893 189.406ZM143.989 189.406C143.989 187.969 142.965 186.987 141.777 186.987C140.59 186.987 139.566 187.97 139.566 189.406C139.566 190.826 140.59 191.824 141.777 191.824C142.965 191.824 143.989 190.826 143.989 189.406ZM145.711 189.406C145.711 191.703 143.944 193.396 141.777 193.396C139.61 193.396 137.844 191.703 137.844 189.406C137.844 187.092 139.61 185.415 141.777 185.415C143.944 185.415 145.711 187.092 145.711 189.406ZM122.288 193.396C118.873 193.396 116 190.615 116 187.199C116 183.782 118.873 181 122.289 181C124.179 181 125.524 181.742 126.537 182.709L125.342 183.903C124.617 183.223 123.634 182.694 122.289 182.694C119.794 182.694 117.844 184.705 117.844 187.199C117.844 189.693 119.794 191.703 122.289 191.703C123.906 191.703 124.828 191.053 125.418 190.463C125.902 189.98 126.22 189.285 126.34 188.332H122.288V186.64H127.987C128.048 186.941 128.078 187.305 128.078 187.697C128.078 188.967 127.73 190.54 126.612 191.659C125.523 192.792 124.132 193.396 122.288 193.396Z" fill="#5F6368"/>
<path d="M304.076 190.221C303.471 187.276 306.585 184.974 309.151 186.47L341.356 205.245C343.951 206.759 343.503 210.697 340.632 211.595L326.348 216.065C325.575 216.307 324.909 216.818 324.468 217.509L317.824 227.92C316.156 230.534 312.218 229.804 311.593 226.765L304.076 190.221Z" fill="#009BFF"/>
<g filter="url(#filter4_d_23831_18163)">
<path fill-rule="evenodd" clip-rule="evenodd" d="M340.21 207.26L308.006 188.485C307.15 187.986 306.112 188.754 306.314 189.735L313.831 226.28C314.039 227.293 315.352 227.536 315.908 226.665L322.552 216.253C323.286 215.102 324.396 214.25 325.685 213.847L339.969 209.377C340.926 209.077 341.076 207.765 340.21 207.26ZM309.151 186.47C306.585 184.974 303.471 187.276 304.076 190.221L311.593 226.765C312.218 229.804 316.156 230.534 317.824 227.92L324.468 217.509C324.909 216.818 325.575 216.307 326.348 216.065L340.632 211.595C343.503 210.697 343.951 206.759 341.356 205.245L309.151 186.47Z" fill="white"/>
</g>
<defs>
<filter id="filter0_d_23831_18163" x="81" y="146" width="254.986" height="157.767" filterUnits="userSpaceOnUse" color-interpolation-filters="sRGB">
<feFlood flood-opacity="0" result="BackgroundImageFix"/>
<feColorMatrix in="SourceAlpha" type="matrix" values="0 0 0 0 0 0 0 0 0 0 0 0 0 0 0 0 0 0 127 0" result="hardAlpha"/>
<feOffset dx="36" dy="36"/>
<feGaussianBlur stdDeviation="28"/>
<feColorMatrix type="matrix" values="0 0 0 0 0.166753 0 0 0 0 0.318793 0 0 0 0 0.470833 0 0 0 0.1 0"/>
<feBlend mode="normal" in2="BackgroundImageFix" result="effect1_dropShadow_23831_18163"/>
<feBlend mode="normal" in="SourceGraphic" in2="effect1_dropShadow_23831_18163" result="shape"/>
</filter>
<filter id="filter1_d_23831_18163" x="240" y="230" width="232.149" height="158.275" filterUnits="userSpaceOnUse" color-interpolation-filters="sRGB">
<feFlood flood-opacity="0" result="BackgroundImageFix"/>
<feColorMatrix in="SourceAlpha" type="matrix" values="0 0 0 0 0 0 0 0 0 0 0 0 0 0 0 0 0 0 127 0" result="hardAlpha"/>
<feOffset dy="36"/>
<feGaussianBlur stdDeviation="28"/>
<feColorMatrix type="matrix" values="0 0 0 0 0.166753 0 0 0 0 0.318793 0 0 0 0 0.470833 0 0 0 0.06 0"/>
<feBlend mode="normal" in2="BackgroundImageFix" result="effect1_dropShadow_23831_18163"/>
<feBlend mode="normal" in="SourceGraphic" in2="effect1_dropShadow_23831_18163" result="shape"/>
</filter>
<filter id="filter2_d_23831_18163" x="0" y="191" width="345.95" height="236.539" filterUnits="userSpaceOnUse" color-interpolation-filters="sRGB">
<feFlood flood-opacity="0" result="BackgroundImageFix"/>
<feColorMatrix in="SourceAlpha" type="matrix" values="0 0 0 0 0 0 0 0 0 0 0 0 0 0 0 0 0 0 127 0" result="hardAlpha"/>
<feOffset dy="24"/>
<feGaussianBlur stdDeviation="35"/>
<feColorMatrix type="matrix" values="0 0 0 0 0 0 0 0 0 0.329167 0 0 0 0 0.658333 0 0 0 0.04 0"/>
<feBlend mode="normal" in2="BackgroundImageFix" result="effect1_dropShadow_23831_18163"/>
<feBlend mode="normal" in="SourceGraphic" in2="effect1_dropShadow_23831_18163" result="shape"/>
</filter>
<filter id="filter3_d_23831_18163" x="247" y="298" width="134.877" height="134.877" filterUnits="userSpaceOnUse" color-interpolation-filters="sRGB">
<feFlood flood-opacity="0" result="BackgroundImageFix"/>
<feColorMatrix in="SourceAlpha" type="matrix" values="0 0 0 0 0 0 0 0 0 0 0 0 0 0 0 0 0 0 127 0" result="hardAlpha"/>
<feOffset dy="26"/>
<feGaussianBlur stdDeviation="18"/>
<feColorMatrix type="matrix" values="0 0 0 0 0.55316 0 0 0 0 0.607504 0 0 0 0 0.745833 0 0 0 0.12 0"/>
<feBlend mode="normal" in2="BackgroundImageFix" result="effect1_dropShadow_23831_18163"/>
<feBlend mode="normal" in="SourceGraphic" in2="effect1_dropShadow_23831_18163" result="shape"/>
</filter>
<filter id="filter4_d_23831_18163" x="291.264" y="177.509" width="64.5397" height="68.9925" filterUnits="userSpaceOnUse" color-interpolation-filters="sRGB">
<feFlood flood-opacity="0" result="BackgroundImageFix"/>
<feColorMatrix in="SourceAlpha" type="matrix" values="0 0 0 0 0 0 0 0 0 0 0 0 0 0 0 0 0 0 127 0" result="hardAlpha"/>
<feOffset dy="4.24538"/>
<feGaussianBlur stdDeviation="6.36807"/>
<feColorMatrix type="matrix" values="0 0 0 0 0.0352941 0 0 0 0 0.0980392 0 0 0 0 0.372549 0 0 0 0.18 0"/>
<feBlend mode="normal" in2="BackgroundImageFix" result="effect1_dropShadow_23831_18163"/>
<feBlend mode="normal" in="SourceGraphic" in2="effect1_dropShadow_23831_18163" result="shape"/>
</filter>
<clipPath id="clip0_23831_18163">
<rect width="70" height="11.1176" fill="white" transform="translate(321 268)"/>
</clipPath>
</defs>
</svg>
