<svg width="480" height="480" viewBox="0 0 480 480" fill="none" xmlns="http://www.w3.org/2000/svg">
<circle cx="240" cy="240" r="240" fill="#FCFCFC"/>
<circle cx="240" cy="240" r="180" fill="#E6F9FF"/>
<path d="M69 137.718C69 128.892 76.1329 121.737 84.9316 121.737H395.595C404.394 121.737 411.526 128.892 411.526 137.718V343.519C411.526 352.345 404.394 359.5 395.595 359.5H84.9316C76.1326 359.5 69 352.345 69 343.519V137.718Z" fill="#F1F7FA"/>
<path d="M329 150.554C329 143.068 335.122 137 342.673 137H382.327C389.878 137 396 143.068 396 150.554V330.446C396 337.932 389.878 344 382.327 344H342.673C335.122 344 329 337.932 329 330.446V150.554Z" fill="#DBF3FA"/>
<path d="M355.31 235L359.862 247H358.138L356.965 243.752H351.896L350.724 247H349L353.552 235H355.31ZM368.665 235V246.732H367.195V245.629H367.127C366.853 246.031 366.477 246.364 365.964 246.632C365.451 246.9 364.904 247 364.322 247C363.229 247 362.305 246.598 361.553 245.763C360.8 244.928 360.425 243.925 360.425 242.721C360.425 241.551 360.8 240.548 361.553 239.679C362.339 238.844 363.229 238.443 364.322 238.443C364.938 238.443 365.485 238.576 365.964 238.81C366.477 239.078 366.853 239.379 367.127 239.813H367.195L367.127 238.71V235H368.665ZM373.712 238.375C374.423 238.375 375.066 238.543 375.677 238.881C376.252 239.217 376.659 239.689 376.895 240.262L375.541 240.834C375.372 240.498 375.135 240.228 374.796 240.026C374.457 239.823 374.051 239.723 373.61 239.723C373.204 239.723 372.865 239.823 372.527 240.026C372.222 240.228 372.053 240.464 372.053 240.767C372.053 241.239 372.493 241.575 373.374 241.744L374.592 242.047C376.218 242.451 376.998 243.26 376.998 244.473C377.032 245.18 376.693 245.786 376.083 246.258C375.473 246.73 374.695 247 373.745 247C372.933 247 372.222 246.797 371.579 246.36C370.968 245.922 370.528 245.383 370.258 244.675L371.612 244.102C371.815 244.574 372.086 244.978 372.493 245.247C372.865 245.517 373.305 245.652 373.745 245.652C374.22 245.652 374.626 245.551 374.965 245.349C375.304 245.147 375.439 244.877 375.439 244.608C375.439 244.102 375.033 243.698 374.254 243.462L372.865 243.125C371.273 242.721 370.494 241.98 370.494 240.834C370.494 240.093 370.799 239.52 371.409 239.048C372.019 238.611 372.797 238.375 373.712 238.375ZM364.562 239.846C363.809 239.846 363.194 240.114 362.716 240.649C362.202 241.183 361.963 241.886 361.963 242.721C361.963 243.557 362.202 244.258 362.716 244.794C363.228 245.328 363.843 245.596 364.562 245.596C365.314 245.629 365.929 245.362 366.408 244.827C366.922 244.293 367.161 243.59 367.161 242.721C367.161 241.886 366.922 241.183 366.408 240.649C365.929 240.114 365.314 239.846 364.562 239.846ZM354.483 236.914H354.414L352.413 242.316H356.449L354.483 236.914Z" fill="#00C2FF"/>
<path d="M84 150.554C84 143.068 90.122 137 97.673 137H137.327C144.878 137 151 143.068 151 150.554V330.446C151 337.932 144.878 344 137.327 344H97.673C90.122 344 84 337.932 84 330.446V150.554Z" fill="#DBF3FA"/>
<path d="M110.31 235L114.862 247H113.138L111.965 243.752H106.896L105.724 247H104L108.552 235H110.31ZM123.665 235V246.732H122.195V245.629H122.127C121.853 246.031 121.477 246.364 120.964 246.632C120.451 246.9 119.904 247 119.322 247C118.229 247 117.305 246.598 116.553 245.763C115.8 244.928 115.425 243.925 115.425 242.721C115.425 241.551 115.8 240.548 116.553 239.679C117.339 238.844 118.229 238.443 119.322 238.443C119.938 238.443 120.485 238.576 120.964 238.81C121.477 239.078 121.853 239.379 122.127 239.813H122.195L122.127 238.71V235H123.665ZM128.712 238.375C129.423 238.375 130.066 238.543 130.677 238.881C131.252 239.217 131.659 239.689 131.895 240.262L130.541 240.834C130.372 240.498 130.135 240.228 129.796 240.026C129.457 239.823 129.051 239.723 128.61 239.723C128.204 239.723 127.865 239.823 127.527 240.026C127.222 240.228 127.053 240.464 127.053 240.767C127.053 241.239 127.493 241.575 128.374 241.744L129.592 242.047C131.218 242.451 131.998 243.26 131.998 244.473C132.032 245.18 131.693 245.786 131.083 246.258C130.473 246.73 129.695 247 128.745 247C127.933 247 127.222 246.797 126.579 246.36C125.968 245.922 125.528 245.383 125.258 244.675L126.612 244.102C126.815 244.574 127.086 244.978 127.493 245.247C127.865 245.517 128.305 245.652 128.745 245.652C129.22 245.652 129.626 245.551 129.965 245.349C130.304 245.147 130.439 244.877 130.439 244.608C130.439 244.102 130.033 243.698 129.254 243.462L127.865 243.125C126.273 242.721 125.494 241.98 125.494 240.834C125.494 240.093 125.799 239.52 126.409 239.048C127.019 238.611 127.797 238.375 128.712 238.375ZM119.562 239.846C118.809 239.846 118.194 240.114 117.716 240.649C117.202 241.183 116.963 241.886 116.963 242.721C116.963 243.557 117.202 244.258 117.716 244.794C118.228 245.328 118.843 245.596 119.562 245.596C120.314 245.629 120.929 245.362 121.408 244.827C121.922 244.293 122.161 243.59 122.161 242.721C122.161 241.886 121.922 241.183 121.408 240.649C120.929 240.114 120.314 239.846 119.562 239.846ZM109.483 236.914H109.414L107.413 242.316H111.449L109.483 236.914Z" fill="#00C2FF"/>
<path fill-rule="evenodd" clip-rule="evenodd" d="M84.5394 120H395.46C405.149 120 413 127.868 413 137.574V343.315C413 353.021 405.149 360.89 395.46 360.89H84.5394C74.8527 360.89 67 353.021 67 343.315V137.574C67 127.868 74.8527 120 84.5394 120ZM84.5394 121.598C75.733 121.598 68.5945 128.751 68.5945 137.574V343.315C68.5945 352.139 75.733 359.292 84.5394 359.292H395.46C404.267 359.292 411.405 352.139 411.405 343.315V137.574C411.405 128.751 404.267 121.598 395.46 121.598H84.5394Z" fill="#252362"/>
<g clip-path="url(#clip0_23831_18116)">
<path d="M240 165.289C264.853 165.289 285 145.141 285 120.289C285 95.4358 264.853 75.2886 240 75.2886C215.147 75.2886 195 95.4358 195 120.289C195 145.141 215.147 165.289 240 165.289Z" fill="#5DD7FF"/>
<path d="M274.742 148.903C266.482 158.891 253.983 165.289 240 165.289C226.017 165.289 213.519 158.918 205.285 148.903C205.636 142.046 207.472 136.08 213.519 132.22C216.542 130.277 220.753 129.008 225.423 128.198C230.093 127.388 235.195 127.064 240.027 127.064C249.664 127.064 260.489 128.36 266.536 132.22C272.529 136.08 274.364 142.046 274.742 148.903Z" fill="#DADADA"/>
<path d="M268.614 101.068C268.021 99.5837 269.532 98.234 269.478 96.7492C269.37 94.3467 267.076 93.8608 265.483 92.7271C261.974 90.2705 265.861 86.3023 263.917 83.117C263.162 81.8752 261.731 81.2813 260.948 80.0396C259.922 78.3389 259.652 76.9622 257.547 76.3143C255.9 75.8014 255.576 75.6395 254.739 74.0468C253.794 72.2382 252.067 71.1584 250.042 70.7265C248.099 70.3215 246.074 69.4577 244.103 69.2687C243.293 69.1878 242.592 69.2957 241.782 69.0528C240.918 68.7828 240.243 68.135 239.298 68.027C238.191 67.892 237.355 68.4589 236.356 68.7828C235.195 69.1878 234.331 69.0258 233.144 69.0798C230.849 69.2148 230.687 70.3485 229.121 71.5363C227.934 72.4271 226.071 72.2651 225.342 73.7229C224.694 75.0456 225.423 76.2334 223.938 77.1512C222.886 77.826 221.617 77.772 220.672 78.6899C219.484 79.8506 219.916 82.4421 218.377 82.982C216.785 83.5219 215.813 81.8212 214.382 83.4409C214.004 83.8728 214.031 84.5207 213.518 84.8986C212.655 85.5195 211.899 85.5735 211.035 86.3833C209.658 87.7061 210.279 88.4619 209.631 90.0276C209.118 91.2693 208.012 91.5123 208.632 93.105C208.956 93.9688 210.279 94.4547 210.198 95.5615C210.144 96.2633 209.388 97.0462 209.01 97.6401C208.443 98.5849 208.227 99.3947 208.416 100.448C208.767 102.418 209.685 103.579 211.062 104.848C213.033 106.656 211.386 107.547 211.899 109.761C212.304 111.596 213.653 111.407 214.949 112.19C216.677 113.243 215.192 114.836 216.299 116.131C217.136 117.103 218.62 116.536 219.592 117.211C220.969 118.156 220.078 120.019 221.401 121.017C222.508 121.854 223.641 121.287 224.64 122.367C225.126 122.88 225.153 123.393 225.882 123.663C226.692 123.96 227.475 123.501 228.284 123.825C229.742 124.392 230.525 125.93 232.118 126.47C234.439 127.253 237.139 127.469 239.595 127.523C244.13 127.604 248.153 126.74 251.554 123.717C252.931 122.475 253.497 120.37 255.144 119.533C256.008 119.101 256.953 119.182 257.736 118.561C258.626 117.886 258.545 116.833 259.274 116.131C260.111 115.322 260.489 115.888 261.326 115.645C262.325 115.349 262.325 115.16 263.081 114.485C264.484 113.162 266.131 113.513 267.13 111.407C267.616 110.409 267.697 109.248 268.209 108.249C268.641 107.439 269.316 106.845 269.775 106.062C270.234 105.253 270.504 104.443 270.288 103.525C270.018 102.418 268.992 102.04 268.614 101.068Z" fill="#1D2247"/>
<path d="M252.579 104.47C252.579 101.959 253.983 98.9089 255.71 98.9089C257.438 98.9089 259.22 99.3948 259.22 101.905C259.22 103.12 258.68 105.82 258.14 107.007C257.573 108.276 256.601 109.032 255.71 109.032C253.983 109.005 252.579 106.98 252.579 104.47Z" fill="#D1A596"/>
<path d="M240 79.0947C227.772 79.0947 224.451 89.6226 224.451 102.634C224.451 111.245 227.151 117.4 232.172 120.936C235.708 123.42 237.166 124.149 240 124.149C242.834 124.149 244.292 123.447 247.828 120.936C252.849 117.4 255.549 111.245 255.549 102.634C255.576 89.6226 252.229 79.0947 240 79.0947Z" fill="#DABCB2"/>
<path d="M227.421 104.47C227.421 101.959 226.017 98.9089 224.29 98.9089C222.562 98.9089 220.78 99.3948 220.78 101.905C220.78 103.12 221.32 105.82 221.86 107.007C222.427 108.276 223.399 109.032 224.29 109.032C226.017 109.005 227.421 106.98 227.421 104.47Z" fill="#D1A596"/>
<path d="M247.261 125.687V120.343H232.738V125.687C232.738 126.821 232.144 127.874 231.199 128.522C229.769 129.494 228.878 131.869 228.878 134.083C228.878 139.779 233.116 149.2 240 149.2C247.153 149.2 251.121 139.779 251.121 134.083C251.121 131.869 250.231 129.494 248.8 128.522C247.882 127.847 247.261 126.821 247.261 125.687Z" fill="#DABCB2"/>
<path d="M247.261 121.341V126.335C244.859 127.901 243.455 128.387 241.107 128.387C238.272 128.387 236.814 127.658 233.278 125.175C233.089 125.04 232.927 124.905 232.738 124.77V121.314C235.87 123.474 237.327 124.122 240 124.122C242.699 124.122 244.13 123.501 247.261 121.341Z" fill="#D1A596"/>
<path d="M240 79.0947C239.784 79.0947 239.568 79.0947 239.352 79.1217C250.123 79.4996 253.092 89.8656 253.092 102.634C253.092 111.245 250.609 117.4 245.966 120.936C242.969 123.231 241.593 124.014 239.325 124.122C239.541 124.122 239.73 124.149 239.973 124.149C242.808 124.149 244.265 123.447 247.802 120.936C252.822 117.4 255.522 111.245 255.522 102.634C255.576 89.6226 252.229 79.0947 240 79.0947Z" fill="#D1A596"/>
<path d="M259.76 93.2129C259.76 83.6298 254.415 76.4762 244.778 74.9646C240.162 74.2357 234.223 74.0737 230.12 76.7192C227.286 78.5548 226.071 81.6592 224.694 84.6016C223.965 86.1943 223.155 87.76 222.076 89.1367C220.645 90.9454 218.62 92.1871 217.487 94.2387C215.381 98.0719 216.731 103.093 219.97 105.873C220.78 106.548 223.047 108.06 224.181 107.142C225.207 106.305 224.046 103.174 224.1 101.932C224.181 100.555 224.694 99.3137 224.91 97.9909C225.153 96.5872 226.503 96.1283 227.232 95.8854C228.662 95.3995 228.905 93.9148 229.904 93.1319C230.984 92.2681 232.415 93.2669 233.656 92.646C234.439 92.2411 234.736 91.2153 235.843 90.7294C236.842 90.2705 238.11 90.4055 239.109 90.2435C240.729 90.0005 241.269 89.3257 242.592 88.3269C243.374 87.733 245.453 84.9795 246.263 84.9256C246.884 84.8716 248.098 86.1133 248.503 86.4643C249.637 87.4361 251.176 88.7318 251.932 89.9736C252.31 90.5944 252.391 91.4313 252.795 92.2951C253.254 93.2939 254.037 94.0497 254.172 95.1295C254.226 95.5614 254.334 96.3713 254.685 97.1001C255.171 98.1529 254.928 98.6658 254.874 99.6916C254.793 101.365 255.765 104.551 258.113 103.498C260.867 102.229 259.76 95.5614 259.76 93.2129Z" fill="#1D2247"/>
<path d="M254.901 99.1247C254.847 98.9357 254.766 98.7468 254.658 98.5308C254.307 97.9099 254.199 97.2081 254.145 96.8302C254.01 95.8853 253.254 95.2375 252.768 94.4006C252.363 93.6448 252.282 92.9429 251.904 92.403C251.148 91.3233 249.61 90.2435 248.476 89.4066C248.071 89.1097 246.856 88.0569 246.235 88.0839C245.399 88.1379 243.32 90.5134 242.564 90.9993C241.241 91.8631 240.729 92.457 239.082 92.646C238.11 92.781 236.814 92.673 235.816 93.0509C234.736 93.4828 234.412 94.3467 233.629 94.6976C232.387 95.2375 230.957 94.3736 229.877 95.1295C228.878 95.8044 228.635 97.0731 227.204 97.505C226.475 97.721 225.126 98.0989 224.883 99.3137C224.667 100.366 224.208 101.365 224.073 102.472C224.046 102.256 224.046 102.067 224.046 101.932C224.127 100.555 224.64 99.3137 224.856 97.9909C225.099 96.5872 226.448 96.1283 227.177 95.8853C228.608 95.3994 228.851 93.9147 229.85 93.1319C230.93 92.2681 232.36 93.2669 233.602 92.646C234.385 92.2411 234.709 91.2153 235.789 90.7294C236.787 90.2705 238.056 90.4054 239.055 90.2435C240.675 90.0005 241.214 89.3257 242.537 88.3269C243.32 87.733 245.399 84.9795 246.208 84.9255C246.829 84.8715 248.044 86.1133 248.449 86.4642C249.61 87.463 251.121 88.7318 251.877 89.9735C252.255 90.5944 252.336 91.4312 252.741 92.2951C253.2 93.2939 253.983 94.0497 254.118 95.1295C254.172 95.5614 254.28 96.3712 254.631 97.1001C255.063 97.9099 254.955 98.4228 254.901 99.1247Z" fill="#D1A596"/>
<path d="M256.062 75.7475C255.63 76.5034 254.902 76.9083 253.93 76.3414C251.041 74.6947 247.532 74.6407 245.642 75.3696C244.833 75.6935 244.104 76.0444 243.213 76.1794C242.376 76.2874 240.729 75.9905 240 76.5034C238.651 77.4212 239.002 78.501 237.139 78.501C233.927 78.501 230.957 75.4506 227.826 77.7721C226.746 78.5549 226.341 80.3366 225.234 80.9305C223.831 81.6863 222.805 80.5795 222.184 82.6041C221.779 83.8729 221.941 84.4128 220.537 85.0606C219.755 85.4116 218.432 85.2226 217.784 85.8435C216.785 86.7883 218 87.7061 218.216 88.7049C218.486 90.0276 217.433 90.8375 217.487 92.0253C217.514 92.9701 218.351 93.321 218.459 94.3198C218.621 95.5345 218.459 97.0193 217.406 97.7211C216.461 98.342 215.273 98.6929 214.653 99.7457C213.708 101.311 215.111 101.851 215.759 103.012C216.272 103.93 217.055 105.091 217.082 106.17C217.109 107.493 216.569 107.25 215.759 108.222C215.165 108.951 215.786 109.923 215.651 110.76C215.543 111.299 215.111 111.785 214.383 111.92C213.303 111.434 212.277 111.353 211.926 109.788C211.413 107.547 213.06 106.656 211.089 104.875C209.713 103.606 208.768 102.445 208.444 100.475C208.255 99.4218 208.471 98.6119 209.038 97.6671C209.389 97.0732 210.144 96.2904 210.198 95.5885C210.306 94.4818 208.984 93.9959 208.66 93.132C208.039 91.5124 209.146 91.2694 209.632 90.0546C210.252 88.516 209.632 87.7331 211.035 86.4104C211.872 85.6005 212.655 85.5465 213.519 84.9257C214.005 84.5747 214.005 83.8999 214.383 83.468C215.813 81.8483 216.785 83.5759 218.378 83.0091C219.916 82.4692 219.485 79.8507 220.672 78.7169C221.644 77.7721 222.886 77.8261 223.939 77.1782C225.396 76.2604 224.668 75.0996 225.315 73.7499C226.044 72.2922 227.907 72.4542 229.095 71.5633C230.66 70.4026 230.849 69.2418 233.117 69.1068C234.278 69.0528 235.168 69.2148 236.329 68.8099C237.328 68.459 238.165 67.9191 239.299 68.054C240.216 68.162 240.918 68.7829 241.782 69.0798C242.565 69.3498 243.294 69.2418 244.077 69.2958C246.047 69.4578 248.072 70.3486 250.015 70.7535C252.04 71.1854 253.768 72.2382 254.713 74.0738C255.198 74.9917 255.522 75.4236 256.062 75.7475Z" fill="#3843A1"/>
</g>
<path d="M356.076 334.221C355.471 331.276 358.585 328.974 361.151 330.47L393.356 349.245C395.951 350.759 395.503 354.697 392.632 355.595L378.348 360.065C377.575 360.307 376.909 360.818 376.468 361.509L369.824 371.92C368.156 374.534 364.218 373.804 363.593 370.765L356.076 334.221Z" fill="#009BFF"/>
<g filter="url(#filter0_d_23831_18116)">
<path fill-rule="evenodd" clip-rule="evenodd" d="M392.21 351.26L360.006 332.485C359.15 331.986 358.112 332.754 358.314 333.735L365.831 370.28C366.039 371.293 367.352 371.536 367.908 370.665L374.552 360.253C375.286 359.102 376.396 358.25 377.685 357.847L391.969 353.377C392.926 353.077 393.076 351.765 392.21 351.26ZM361.151 330.47C358.585 328.974 355.471 331.276 356.076 334.221L363.593 370.765C364.218 373.804 368.156 374.534 369.824 371.92L376.468 361.509C376.909 360.818 377.575 360.307 378.348 360.065L392.632 355.595C395.503 354.697 395.951 350.759 393.356 349.245L361.151 330.47Z" fill="white"/>
</g>
<path d="M164 232.153C164 224.347 170.105 218.019 177.636 218.019H300.364C307.895 218.019 314 224.347 314 232.153C314 239.959 307.895 246.288 300.364 246.288H177.636C170.105 246.288 164 239.959 164 232.153Z" fill="#00B2EC"/>
<path d="M164 297.01C164 289.204 170.105 282.875 177.636 282.875H300.364C307.895 282.875 314 289.204 314 297.01C314 304.816 307.895 311.144 300.364 311.144H177.636C170.105 311.144 164 304.816 164 297.01Z" fill="#00B2EC"/>
<path d="M164 329.438C164 321.632 170.105 315.304 177.636 315.304H300.364C307.895 315.304 314 321.632 314 329.438C314 337.244 307.895 343.572 300.364 343.572H177.636C170.105 343.572 164 337.244 164 329.438Z" fill="#00B2EC"/>
<path d="M164 361.866C164 354.06 170.105 347.732 177.636 347.732H300.364C307.895 347.732 314 354.06 314 361.866C314 369.672 307.895 376 300.364 376H177.636C170.105 376 164 369.672 164 361.866Z" fill="#00B2EC"/>
<path d="M164 264.582C164 256.776 170.105 250.448 177.636 250.448H300.364C307.895 250.448 314 256.776 314 264.582C314 272.388 307.895 278.716 300.364 278.716H177.636C170.105 278.716 164 272.388 164 264.582Z" fill="#00B2EC"/>
<path d="M164 230.134C164 222.328 170.105 216 177.636 216H300.364C307.895 216 314 222.328 314 230.134C314 237.94 307.895 244.268 300.364 244.268H177.636C170.105 244.268 164 237.94 164 230.134Z" fill="#5ED7FF"/>
<path d="M164 294.99C164 287.184 170.105 280.856 177.636 280.856H300.364C307.895 280.856 314 287.184 314 294.99C314 302.796 307.895 309.124 300.364 309.124H177.636C170.105 309.124 164 302.796 164 294.99Z" fill="#5ED7FF"/>
<path d="M164 327.419C164 319.612 170.105 313.284 177.636 313.284H300.364C307.895 313.284 314 319.612 314 327.419C314 335.225 307.895 341.553 300.364 341.553H177.636C170.105 341.553 164 335.225 164 327.419Z" fill="#5ED7FF"/>
<path d="M164 359.847C164 352.041 170.105 345.713 177.636 345.713H300.364C307.895 345.713 314 352.041 314 359.847C314 367.653 307.895 373.981 300.364 373.981H177.636C170.105 373.981 164 367.653 164 359.847Z" fill="#5ED7FF"/>
<path d="M164 262.562C164 254.756 170.105 248.428 177.636 248.428H300.364C307.895 248.428 314 254.756 314 262.562C314 270.368 307.895 276.696 300.364 276.696H177.636C170.105 276.696 164 270.368 164 262.562Z" fill="#5ED7FF"/>
<path d="M255.714 206.826C255.679 206.826 255.643 206.826 255.595 206.826C254.691 206.826 253.859 206.802 253.05 206.753C252.312 206.704 251.634 206.446 251.087 205.993C250.564 205.552 250.207 204.964 250.028 204.24C249.874 203.603 249.862 202.978 249.85 202.378C249.85 201.949 249.838 201.434 249.838 200.919C249.838 200.392 249.85 199.89 249.85 199.449C249.862 198.848 249.862 198.223 250.028 197.586C250.207 196.863 250.564 196.262 251.087 195.833C251.622 195.38 252.3 195.123 253.05 195.074C253.859 195.025 254.691 195 255.595 195C256.499 195 257.332 195.025 258.141 195.074C258.879 195.123 259.557 195.38 260.104 195.833C260.627 196.275 260.984 196.863 261.163 197.586C261.317 198.223 261.329 198.848 261.341 199.449C261.341 199.878 261.353 200.392 261.353 200.907C261.353 201.434 261.341 201.936 261.341 202.378C261.341 202.635 261.139 202.831 260.889 202.831C260.639 202.831 260.449 202.623 260.449 202.365C260.449 201.936 260.461 201.422 260.461 200.907C260.461 200.392 260.449 199.89 260.449 199.461C260.437 198.909 260.437 198.346 260.306 197.819C260.175 197.292 259.925 196.863 259.557 196.556C259.164 196.226 258.676 196.029 258.117 196.005C257.332 195.956 256.511 195.931 255.631 195.931C254.751 195.931 253.93 195.956 253.145 196.005C252.586 196.042 252.098 196.226 251.706 196.556C251.337 196.863 251.087 197.292 250.956 197.819C250.825 198.346 250.813 198.909 250.813 199.461C250.813 199.89 250.801 200.405 250.801 200.919C250.801 201.434 250.813 201.936 250.813 202.365C250.825 202.917 250.825 203.481 250.956 204.008C251.087 204.535 251.337 204.964 251.706 205.27C252.098 205.601 252.586 205.797 253.145 205.821C253.93 205.87 254.751 205.895 255.631 205.895C256.511 205.895 257.332 205.87 258.117 205.821C258.676 205.785 259.164 205.601 259.557 205.27C259.818 205.049 260.032 204.755 260.175 204.424C260.27 204.191 260.532 204.081 260.77 204.179C260.996 204.277 261.103 204.547 261.008 204.792C260.806 205.27 260.508 205.674 260.14 205.993C259.604 206.446 258.926 206.704 258.177 206.753C257.368 206.814 256.571 206.826 255.714 206.826ZM258.379 200.919C258.379 199.326 257.118 198.027 255.572 198.027C254.025 198.027 252.764 199.326 252.764 200.919C252.764 202.512 254.025 203.812 255.572 203.812C257.118 203.799 258.379 202.512 258.379 200.919ZM257.487 200.919C257.487 201.998 256.63 202.88 255.583 202.88C254.537 202.88 253.68 201.998 253.68 200.919C253.68 199.841 254.537 198.958 255.583 198.958C256.63 198.958 257.487 199.829 257.487 200.919ZM258.688 197.108C258.32 197.108 258.01 197.414 258.01 197.806C258.01 198.186 258.308 198.505 258.688 198.505C259.057 198.505 259.366 198.199 259.366 197.806C259.366 197.414 259.069 197.108 258.688 197.108Z" fill="#252362"/>
<path d="M271.75 198.394C271.453 198.211 271.072 198.431 271.072 198.787V203.088C271.072 203.444 271.453 203.664 271.75 203.48L275.248 201.336C275.533 201.152 275.533 200.723 275.248 200.539L271.75 198.394ZM271.976 202.279V199.608L274.153 200.943L271.976 202.279Z" fill="#252362"/>
<path d="M278.244 197.61C278.054 196.397 277.209 195.478 276.115 195.294C274.759 195.074 274.414 195 272.784 195C271.166 195 270.821 195.074 269.465 195.294C268.383 195.466 267.526 196.397 267.336 197.61C267.157 198.75 267.074 199.816 267.074 200.895C267.074 201.973 267.157 203.039 267.336 204.179C267.526 205.392 268.371 206.312 269.465 206.495C270.821 206.716 271.166 206.79 272.796 206.79C274.414 206.79 274.759 206.716 276.115 206.495C277.197 206.324 278.054 205.392 278.244 204.179C278.256 204.081 278.268 203.983 278.292 203.873C278.292 203.64 278.125 203.444 277.887 203.419C277.685 203.395 277.507 203.517 277.435 203.701C277.423 203.812 277.4 203.91 277.388 204.02C277.269 204.816 276.71 205.429 275.996 205.552C273.367 205.981 272.237 205.981 269.608 205.552C268.894 205.441 268.335 204.829 268.216 204.02C268.05 202.929 267.966 201.912 267.966 200.895C267.966 199.878 268.05 198.873 268.216 197.77C268.335 196.973 268.894 196.36 269.608 196.238C272.237 195.809 273.367 195.809 275.996 196.238C276.71 196.348 277.269 196.961 277.388 197.77C277.554 198.86 277.638 199.878 277.638 200.895C277.638 201.14 277.638 201.385 277.626 201.618C277.649 201.838 277.804 202.01 278.03 202.035C278.244 202.059 278.423 201.924 278.494 201.74C278.506 201.459 278.506 201.177 278.506 200.895C278.506 199.816 278.423 198.75 278.244 197.61Z" fill="#252362"/>
<path d="M227.602 201.181C227.351 200.538 226.614 199.974 225.767 199.962C225.61 199.178 225.194 198.463 224.594 197.961C223.92 197.397 223.075 197.14 222.217 197.241C222.036 197.262 221.898 197.42 221.898 197.608V203.753C221.898 203.957 222.061 204.125 222.259 204.125H225.8C227.161 204.124 228.183 202.666 227.602 201.181Z" fill="#252362"/>
<path d="M220.494 198.538V203.754C220.494 204.243 221.212 204.244 221.212 203.754V198.538C221.212 198.048 220.494 198.048 220.494 198.538Z" fill="#252362"/>
<path d="M219.09 199.961V203.755C219.09 204.244 219.808 204.244 219.808 203.755V199.961C219.808 199.472 219.09 199.471 219.09 199.961Z" fill="#252362"/>
<path d="M217.684 199.961V203.755C217.684 204.244 218.402 204.244 218.402 203.755V199.961C218.402 199.472 217.684 199.471 217.684 199.961Z" fill="#252362"/>
<path d="M216.279 200.909V203.754C216.279 204.244 216.997 204.244 216.997 203.754V200.909C216.997 200.42 216.279 200.419 216.279 200.909Z" fill="#252362"/>
<path d="M238.681 195.74C235.719 195.74 233.318 198.213 233.318 201.264C233.318 204.316 235.719 206.789 238.681 206.789C241.643 206.789 244.043 204.316 244.043 201.264C244.043 198.213 241.643 195.74 238.681 195.74ZM241.126 204.02C241 204.164 240.786 204.21 240.614 204.132C239.714 203.722 238.754 203.514 237.762 203.514C237.176 203.514 236.595 203.587 236.033 203.733C235.794 203.795 235.551 203.645 235.491 203.399C235.431 203.153 235.576 202.902 235.815 202.84C236.448 202.676 237.103 202.593 237.762 202.593C238.88 202.593 239.961 202.827 240.976 203.29C241.075 203.335 241.157 203.418 241.2 203.52C241.271 203.684 241.243 203.886 241.126 204.02ZM241.742 202.542C241.59 202.702 241.347 202.752 241.147 202.663C240.077 202.189 238.938 201.948 237.762 201.948C237.179 201.948 236.597 202.009 236.032 202.128C235.742 202.189 235.458 201.996 235.399 201.697C235.34 201.402 235.531 201.106 235.817 201.045C236.453 200.911 237.107 200.843 237.762 200.843C239.084 200.843 240.366 201.114 241.571 201.648C241.692 201.702 241.791 201.802 241.845 201.925C241.934 202.13 241.896 202.381 241.742 202.542ZM242.518 201.085C242.346 201.187 242.131 201.198 241.951 201.115C240.63 200.507 239.221 200.199 237.762 200.199C237.082 200.199 236.402 200.268 235.742 200.404C235.588 200.435 235.426 200.406 235.293 200.321C235.067 200.177 234.949 199.894 235.01 199.626C235.065 199.383 235.26 199.188 235.497 199.14C236.238 198.987 237 198.91 237.762 198.91C239.398 198.91 240.979 199.256 242.461 199.939C242.614 200.009 242.731 200.136 242.79 200.297C242.833 200.412 242.843 200.541 242.818 200.661C242.781 200.838 242.67 200.995 242.518 201.085Z" fill="#252362"/>
<path d="M209.792 195.752C209.986 195.715 210.158 195.761 210.308 195.888C210.458 196.016 210.533 196.179 210.533 196.379V203.378C210.533 204.024 210.357 204.529 210.004 204.893C209.651 205.247 209.165 205.425 208.547 205.425C208.124 205.425 207.775 205.311 207.501 205.084C207.228 204.847 207.091 204.552 207.091 204.197C207.091 203.751 207.263 203.378 207.607 203.078C207.951 202.778 208.397 202.628 208.945 202.628C209.148 202.628 209.364 202.664 209.593 202.737C209.602 202.737 209.611 202.733 209.62 202.723C209.629 202.723 209.633 202.719 209.633 202.71V198.208C209.633 198.18 209.62 198.158 209.593 198.139C209.567 198.112 209.54 198.103 209.514 198.112L204.549 199.094C204.478 199.113 204.443 199.158 204.443 199.231V204.743C204.443 205.388 204.266 205.893 203.913 206.257C203.56 206.612 203.074 206.789 202.456 206.789C202.033 206.789 201.684 206.671 201.41 206.434C201.137 206.207 201 205.916 201 205.561C201 205.116 201.172 204.743 201.516 204.442C201.861 204.142 202.306 203.992 202.854 203.992C203.057 203.992 203.273 204.029 203.503 204.101C203.511 204.101 203.52 204.097 203.529 204.088C203.538 204.088 203.542 204.083 203.542 204.074V197.744C203.542 197.516 203.608 197.316 203.741 197.143C203.882 196.962 204.059 196.852 204.271 196.816L209.792 195.752Z" fill="#252362"/>
<path d="M200 176C200 174.895 201.017 174 202.273 174H278.727C279.983 174 281 174.895 281 176C281 177.104 279.983 178 278.727 178H202.273C201.017 178 200 177.104 200 176Z" fill="#252362"/>
<path d="M215 184C215 182.895 216.017 182 217.273 182H263.727C264.983 182 266 182.895 266 184C266 185.104 264.983 186 263.727 186H217.273C216.017 186 215 185.104 215 184Z" fill="#252362"/>
<defs>
<filter id="filter0_d_23831_18116" x="343.264" y="321.509" width="64.5397" height="68.9925" filterUnits="userSpaceOnUse" color-interpolation-filters="sRGB">
<feFlood flood-opacity="0" result="BackgroundImageFix"/>
<feColorMatrix in="SourceAlpha" type="matrix" values="0 0 0 0 0 0 0 0 0 0 0 0 0 0 0 0 0 0 127 0" result="hardAlpha"/>
<feOffset dy="4.24538"/>
<feGaussianBlur stdDeviation="6.36807"/>
<feColorMatrix type="matrix" values="0 0 0 0 0.0352941 0 0 0 0 0.0980392 0 0 0 0 0.372549 0 0 0 0.18 0"/>
<feBlend mode="normal" in2="BackgroundImageFix" result="effect1_dropShadow_23831_18116"/>
<feBlend mode="normal" in="SourceGraphic" in2="effect1_dropShadow_23831_18116" result="shape"/>
</filter>
<clipPath id="clip0_23831_18116">
<rect width="90" height="97.2885" fill="white" transform="translate(195 68)"/>
</clipPath>
</defs>
</svg>
